<?xml version="1.0" encoding="utf-8"?><svg xmlns="http://www.w3.org/2000/svg" xmlns:xlink="http://www.w3.org/1999/xlink">

<symbol viewBox="0 0 512 512" id="38"><g fill="none" stroke="#000" stroke-linecap="round" stroke-linejoin="round" stroke-miterlimit="10" stroke-width="10"><path d="M346.2 279.9v48.7L255.6 381l-90.7-52.4v-48.7m181.3-56l-90.6-52.3-90.7 52.3"/><path d="M164.9 223.9l90.7 52.4V381m0-104.7l90.6-52.4m0 0l25.2-40.5-90.7-52.4-25.1 40.6m1.5 107.2l23.7 41.5 89.1-55-23.7-41.4"/><path d="M254.9 278.8l-23.7 41.5-89.1-55 23.7-41.4m0 0l-25.2-40.5 90.7-52.4 25.1 40.6"/></g></symbol>

<symbol viewBox="0 0 32 32" id="arrowCircle"><g><path d="M16 0C7.163 0 0 7.163 0 16c0 8.836 7.163 16 16 16 8.836 0 16-7.164 16-16 0-8.837-7.164-16-16-16zm0 30C8.28 30 2 23.72 2 16S8.28 1.969 16 1.969 30 8.28 30 16c0 7.72-6.28 14-14 14z"/><path d="M13.808 8.271a.994.994 0 0 0-1.414 0 1.017 1.017 0 0 0 0 1.429l6.195 6.285-6.196 6.285a1.017 1.017 0 0 0 0 1.429.994.994 0 0 0 1.414 0l6.9-6.999a1.037 1.037 0 0 0 0-1.429l-6.899-7z"/></g></symbol>


<symbol id="arrow_10" viewBox="-223 25 181 512"><style>.cst0{font-family:'Roboto-Bold'}.cst1{font-size:79px}</style><g id="clayer1" transform="translate(0 -540.362)"><path id="cpath2986" d="M-102.3 659.6h24.9L-118 569l-40.5 90.6h24.9v323.5h-24.9l40.5 90.6 40.5-90.6h-24.9c.1-107.8.1-215.7.1-323.5z"/></g><text transform="rotate(-90 84.081 230.291)" class="cst0 cst1">h</text></symbol>

<symbol viewBox="0 0 96 96" id="box"><path d="M87.17 17.8L48 0 8.83 17.81 4 20v56l40 18.18L48 96l4-1.82L92 76V20l-4.83-2.2zM48 8.79L77.5 22.2 48 35.61 18.49 22.2 48 8.79zM12 70.85V28.03l32 14.54v42.82L12 70.85zm72 0L52 85.39V42.57l32-14.54v42.82z"/></symbol>

<symbol viewBox="0 0 24 24" id="mail"><path clip-rule="evenodd" d="M11.984 13C10.031 13-.031 4.891-.031 4.891V4c0-1.104.896-2 2.002-2h20.026C23.104 2 24 2.896 24 4l-.016 1s-9.953 8-12 8zm0 2.75c2.141 0 12-7.75 12-7.75L24 20c0 1.104-.896 2-2.003 2H1.971a2.002 2.002 0 0 1-2.002-2l.016-12c-.001 0 10.046 7.75 11.999 7.75z" fill-rule="evenodd"/></symbol>

<symbol viewBox="0 0 139 139" id="phone"><path d="M67.317 81.952c-9.284-7.634-15.483-17.054-18.742-22.414l-2.431-4.583c.85-.912 7.332-7.853 10.141-11.619 3.53-4.729-1.588-9-1.588-9s-14.401-14.403-17.683-17.26c-3.282-2.861-7.06-1.272-7.06-1.272-6.898 4.457-14.049 8.332-14.478 26.968-.016 17.448 13.229 35.444 27.552 49.376 14.346 15.734 34.043 31.504 53.086 31.486 18.634-.425 22.508-7.575 26.965-14.473 0 0 1.59-3.775-1.268-7.06-2.86-3.284-17.265-17.688-17.265-17.688s-4.268-5.119-8.998-1.586c-3.525 2.635-9.855 8.496-11.38 9.917.003.005-10.586-5.64-16.851-10.792z"/></symbol>

<symbol viewBox="0 0 32 32" id="triangle-down"><path d="M4 8h24L16 26z"/></symbol>

<symbol viewBox="0 0 500 500" id="water"><path clip-rule="evenodd" d="M109.676 329.772c0 76.403 63.053 138.278 140.825 138.278 77.778 0 140.823-61.875 140.823-138.278 0-97.943-109.29-161.542-118.108-270.567v-4.543c0-12.536-10.179-22.713-22.715-22.713-12.537 0-22.713 10.177-22.713 22.713v4.543c-9.087 109.026-118.112 172.625-118.112 270.567zm160.361 56.512c19.628-4.543 35.243-21.26 39.786-39.52 1.552-8.544 8.994-14.993 17.905-14.993 9.987 0 18.168 8.181 18.168 18.167 0 13.079-10.992 32.983-25.978 47.876-14.726 14.543-32.261 24.81-46.703 24.81-9.991 0-18.172-8.447-18.172-18.436.001-8.91 6.45-16.36 14.994-17.904z" fill="#010101" fill-rule="evenodd"/></symbol>

<symbol id="weight" viewBox="-429 231 100 100"><style>.ist0{enable-background:new}</style><path d="M-353.4 261c.3-2.3.3-5.4.3-6.2 0-13.3-10.4-22.6-25.4-22.6s-25.4 9.3-25.4 22.6c0 .8.1 3.9.3 6.2-8.7 7.2-14.4 18.2-14.4 30.5 0 21.7 17.8 39.5 39.5 39.5s39.5-17.8 39.5-39.5c0-12.3-5.6-23.3-14.4-30.5zm-42.5-7c0-10.3 8.7-14.9 17.4-14.9s17.4 4.6 17.4 14.9v2.1c-5.1-3-11.1-4.6-17.4-4.6s-12.2 1.7-17.4 4.6V254zm17.4 69.3c-17.5 0-31.8-14.3-31.8-31.8s14.3-31.8 31.8-31.8 31.8 14.3 31.8 31.8-14.3 31.8-31.8 31.8z"/><text transform="translate(51 511)" font-family="MyriadPro-Regular" font-size="12">-1px</text><text transform="translate(51 511)" font-family="MyriadPro-Regular" font-size="12">-1px</text><path d="M-391.4 293.4h-1.3v11.1h-5.1v-25.9h5.1V290l1.2-.5 7.1-11h5.8l-7.5 10.9-2 1.4 2.1 1.4 8.6 12.2h-6.3l-7.7-11zm23.6-2.5h9.7v11.5c-1 .9-2.3 1.5-3.7 1.9-1.4.4-2.9.6-4.3.6-1.7 0-3.2-.3-4.6-.8-1.4-.5-2.6-1.3-3.7-2.4-1-1.1-1.9-2.5-2.4-4.2s-.9-3.7-.9-6.1c0-2.4.4-4.5 1.1-6.2.7-1.7 1.6-3.1 2.8-4.2 1.1-1.1 2.4-1.8 3.9-2.3 1.4-.5 2.9-.7 4.4-.7 1.5 0 2.8.1 3.9.3s2 .5 2.7.7l-1 4.3c-.6-.2-1.3-.4-2.1-.6-.8-.1-1.7-.2-2.9-.2-1.1 0-2 .2-2.9.5-.9.3-1.7.8-2.3 1.6-.7.7-1.2 1.7-1.5 2.8s-.5 2.5-.5 4.1c0 1.6.2 2.9.5 4s.8 2 1.4 2.8c.6.7 1.3 1.3 2.2 1.6s1.7.5 2.6.5c.6 0 1.3-.1 1.9-.2s1.1-.4 1.6-.7v-4.9l-5.6-.6v-3.1z" class="ist0"/></symbol></svg>
